<svg id="Layer_1" data-name="Layer 1" xmlns="http://www.w3.org/2000/svg" viewBox="0 0 940.75 138.26"><defs><style>.cls-1{fill:none;}.cls-1,.cls-3{stroke:#a0b0ff;stroke-miterlimit:10;}.cls-2{font-size:10px;fill:#b1bdc9;font-family:Roboto-Regular, Roboto;}.cls-3{fill:#a0b0ff;}</style></defs><title>timeline</title><path class="cls-1" d="M-7.5,296.5C6.82,271.52,40,247.14,65,234.36c28.89-14.78,62.13-22.77,94.46-16.72,31.1,5.82,57.91,23.84,83.86,40.94,27.74,18.27,55.75,36.73,86.78,49,31.19,12.33,64.91,15.88,98.23,15.94a320,320,0,0,0,101.27-16.66,366.28,366.28,0,0,0,87.54-42.59c13.89-9.22,27.15-19.35,41.61-27.71A167.84,167.84,0,0,1,705,218.19c32.67-7.54,67.41-5.81,99.53,3.47,31.07,9,59.28,25.52,85.18,44.58,6.9,5.07,36.13,26.88,42.79,32.26" transform="translate(7.93 -206.76)"/><text class="cls-2" transform="translate(95.2 8.55)">2015</text><circle class="cls-3" cx="106.93" cy="14.24" r="2.5"/><text class="cls-2" transform="translate(284.2 93.55)">2016</text><circle class="cls-3" cx="295.93" cy="80.24" r="2.5"/><text class="cls-2" transform="translate(482.2 123.55)">2017</text><circle class="cls-3" cx="493.93" cy="111.24" r="2.5"/><text class="cls-2" transform="translate(645.2 28.55)">2018</text><circle class="cls-3" cx="819.93" cy="17.24" r="2.5"/><text class="cls-2" transform="translate(808.2 11.55)">2019</text><circle class="cls-3" cx="655.93" cy="36.24" r="2.5"/></svg>