<?xml version="1.0" encoding="utf-8"?>
<!-- Generator: Adobe Illustrator 23.0.4, SVG Export Plug-In . SVG Version: 6.00 Build 0)  -->
<svg version="1.1" id="Layer_1" xmlns="http://www.w3.org/2000/svg" xmlns:xlink="http://www.w3.org/1999/xlink" x="0px" y="0px"
	 viewBox="0 0 971 148" style="enable-background:new 0 0 971 148;" xml:space="preserve">
<style type="text/css">
	.st0{fill:#B1BDC9;}
	.st1{font-family:'Roboto-Regular';}
	.st2{font-size:10px;}
	.st3{fill:#A0B0FF;stroke:#A0B0FF;stroke-miterlimit:10;}
	.st4{fill:none;stroke:#A0B0FF;stroke-miterlimit:10;}
</style>
<text transform="matrix(1 0 0 1 110.26 18.32)" class="st0 st1 st2">2015</text>
<circle class="st3" cx="122" cy="24" r="2.5"/>
<text transform="matrix(1 0 0 1 299.26 103.32)" class="st0 st1 st2">2016</text>
<circle class="st3" cx="311" cy="90" r="2.5"/>
<text transform="matrix(1 0 0 1 497.26 133.32)" class="st0 st1 st2">2017</text>
<circle class="st3" cx="509" cy="121" r="2.5"/>
<text transform="matrix(1 0 0 1 660.26 38.32)" class="st0 st1 st2">2018</text>
<circle class="st3" cx="835" cy="27" r="2.5"/>
<text transform="matrix(1 0 0 1 823.26 21.32)" class="st0 st1 st2">2019</text>
<circle class="st3" cx="671" cy="46" r="2.5"/>
<path class="st4" d="M15.5,99.5C29.8,74.5,63,50.1,88,37.4c28.9-14.8,62.1-22.8,94.5-16.7c31.1,5.8,57.9,23.8,83.9,40.9
	c27.7,18.3,55.8,36.7,86.8,49c31.2,12.3,64.9,15.9,98.2,15.9c34.4-0.1,68.6-5.7,101.3-16.7c30.9-10.2,60.4-24.6,87.5-42.6
	c13.9-9.2,27.2-19.4,41.6-27.7c14.4-8.4,30-14.6,46.3-18.4c32.7-7.5,67.4-5.8,99.5,3.5c31.1,9,59.3,25.5,85.2,44.6
	c6.9,5.1,36.1,26.9,42.8,32.3"/>
</svg>
